<svg width="150" height="144" viewBox="0 0 150 144" fill="none" xmlns="http://www.w3.org/2000/svg">
<path d="M0 23.4994V0.722467H19.9626C21.2397 0.722467 22.3936 0.965244 23.4242 1.4508C24.4772 1.91428 25.3062 2.56536 25.9111 3.40405C26.5384 4.24273 26.8521 5.21384 26.8521 6.31737C26.8521 7.4209 26.6617 8.3258 26.2808 9.03206C25.8999 9.73832 25.3846 10.3011 24.7349 10.7205C24.1075 11.1177 23.413 11.4157 22.6512 11.6143V11.7467C23.525 11.9233 24.3204 12.2323 25.0373 12.6737C25.7543 13.0931 26.3256 13.689 26.7513 14.4614C27.177 15.2339 27.3898 16.2271 27.3898 17.441C27.3898 18.6548 27.065 19.7142 26.4152 20.6191C25.7879 21.524 24.9253 22.2303 23.8275 22.7379C22.7296 23.2455 21.5086 23.4994 20.1643 23.4994H0ZM8.30097 18.2024H16.8372C17.4421 18.2024 17.935 18.0258 18.3159 17.6727C18.6968 17.3196 18.8872 16.7899 18.8872 16.0836C18.8872 15.7526 18.7976 15.4546 18.6184 15.1898C18.4615 14.9028 18.2263 14.6821 17.9126 14.5276C17.5989 14.3731 17.2405 14.2959 16.8372 14.2959H8.30097V18.2024ZM8.30097 9.59486H16.2995C16.7252 9.59486 17.0836 9.51761 17.3749 9.36312C17.6886 9.18655 17.9238 8.94377 18.0806 8.63479C18.2599 8.3258 18.3495 7.93956 18.3495 7.47608C18.3495 6.99052 18.1479 6.58222 17.7446 6.25116C17.3413 5.89803 16.8596 5.72146 16.2995 5.72146H8.30097V9.59486Z" fill="white"/>
<path d="M31.2441 23.4994V0.722467H39.5451V17.2423H54.5339V23.4994H31.2441Z" fill="white"/>
<path d="M55.4458 23.4994L66.6369 0.722467H75.7781L86.9693 23.4994H78.0634L76.6855 20.4867H65.3599L64.0156 23.4994H55.4458ZM67.8804 14.8256H74.1649L72.5518 10.9853C72.4846 10.8087 72.395 10.577 72.2829 10.2901C72.1709 9.98109 72.0477 9.639 71.9133 9.2638C71.7788 8.8886 71.6444 8.5134 71.51 8.1382C71.3979 7.763 71.2859 7.4209 71.1739 7.11191H70.9387C70.8042 7.48711 70.6474 7.91749 70.4682 8.40304C70.2889 8.8886 70.1097 9.36312 69.9304 9.8266C69.7736 10.2901 69.628 10.6763 69.4936 10.9853L67.8804 14.8256Z" fill="white"/>
<path d="M102.263 23.8966C98.9243 23.8966 96.1573 23.4552 93.9617 22.5724C91.766 21.6675 90.1192 20.3433 89.0214 18.5997C87.946 16.8561 87.4083 14.6932 87.4083 12.1109C87.4083 8.33683 88.6741 5.43454 91.2059 3.40405C93.7376 1.35148 97.4456 0.325195 102.33 0.325195C105.018 0.325195 107.382 0.744537 109.421 1.58322C111.46 2.39983 113.051 3.54751 114.193 5.02624C115.358 6.4829 115.941 8.1713 115.941 10.0914H107.875C107.875 9.2969 107.64 8.59064 107.169 7.97267C106.699 7.35469 106.038 6.86914 105.186 6.51601C104.335 6.16288 103.338 5.98631 102.195 5.98631C100.762 5.98631 99.5741 6.24012 98.633 6.74775C97.7145 7.25537 97.0311 7.93956 96.583 8.80031C96.1573 9.66107 95.9445 10.6211 95.9445 11.6805V12.5082C95.9445 13.5234 96.1573 14.4725 96.583 15.3553C97.0311 16.216 97.7032 16.9113 98.5994 17.441C99.4956 17.9707 100.638 18.2355 102.027 18.2355C103.304 18.2355 104.391 18.07 105.287 17.7389C106.206 17.4079 106.9 16.9444 107.371 16.3485C107.864 15.7526 108.11 15.0573 108.11 14.2628H115.941C115.941 16.1167 115.392 17.772 114.294 19.2287C113.219 20.6853 111.661 21.833 109.623 22.6717C107.584 23.4883 105.13 23.8966 102.263 23.8966Z" fill="white"/>
<path d="M119.955 23.4994V0.722467H128.256V10.7867L139.447 0.722467H149.731L139.515 10.0252L150 23.4994H139.884L133.398 14.9249L128.256 19.0301V23.4994H119.955Z" fill="white"/>
<path d="M150 23.1826H0V110.094L150 143.575V23.1826Z" fill="white"/>
<path d="M14.4363 55.3254L7.85706 32.4683H16.0648L18.7356 42.6012C18.8876 43.1327 19.0179 43.6532 19.1264 44.1626C19.235 44.672 19.3327 45.1371 19.4196 45.558C19.5064 45.9566 19.5716 46.2778 19.615 46.5214H19.843C19.8864 46.2778 19.9407 45.9899 20.0058 45.6576C20.071 45.3254 20.1361 44.9821 20.2013 44.6277C20.2664 44.2734 20.3424 43.919 20.4292 43.5646C20.5161 43.2102 20.5921 42.8891 20.6572 42.6012L23.1977 32.4683H33.0014L35.5094 42.6012C35.6179 42.9998 35.7156 43.4428 35.8025 43.9301C35.9111 44.3952 36.0088 44.8603 36.0956 45.3254C36.1825 45.7905 36.2585 46.1892 36.3236 46.5214H36.5516C36.595 46.2556 36.6493 45.9566 36.7145 45.6244C36.8013 45.2922 36.8773 44.9489 36.9425 44.5945C37.0293 44.2401 37.1162 43.8968 37.203 43.5646C37.2899 43.2102 37.3659 42.8891 37.431 42.6012L40.1344 32.4683H47.593L41.0138 55.3254H31.7638L28.5393 42.4683C28.4524 42.0917 28.3547 41.7152 28.2462 41.3387C28.1593 40.9622 28.0833 40.6189 28.0182 40.3088C27.953 39.9987 27.8987 39.7551 27.8553 39.5779H27.6273C27.5622 39.8437 27.4862 40.1538 27.3993 40.5081C27.3125 40.8625 27.2256 41.2169 27.1388 41.5713C27.0736 41.9035 27.0085 42.2025 26.9433 42.4683L23.6863 55.3254H14.4363Z" fill="black"/>
<path d="M45.7416 55.3254L56.5875 32.4683H65.4467L76.2926 55.3254H67.6615L66.3261 52.3021H55.3499L54.047 55.3254H45.7416ZM57.7926 46.6211H63.8833L62.3199 42.7673C62.2548 42.5901 62.1679 42.3575 62.0594 42.0696C61.9508 41.7595 61.8314 41.4162 61.7011 41.0397C61.5708 40.6632 61.4405 40.2866 61.3102 39.9101C61.2017 39.5336 61.0931 39.1903 60.9845 38.8802H60.7565C60.6263 39.2567 60.4743 39.6886 60.3006 40.1759C60.1269 40.6632 59.9531 41.1394 59.7794 41.6045C59.6274 42.0696 59.4863 42.4572 59.356 42.7673L57.7926 46.6211Z" fill="black"/>
<path d="M78.9667 55.3254V32.4683H87.0116V49.0463H101.538V55.3254H78.9667Z" fill="black"/>
<path d="M104.571 55.3254V32.4683H112.616V49.0463H127.143V55.3254H104.571Z" fill="black"/>
</svg>
