<svg width="128" height="128" viewBox="0 0 128 128" fill="none" xmlns="http://www.w3.org/2000/svg">
<path d="M64 128C99.3462 128 128 99.3462 128 64C128 28.6538 99.3462 0 64 0C28.6538 0 0 28.6538 0 64C0 99.3462 28.6538 128 64 128Z" fill="black"/>
<path d="M92.0832 53.9907H74.0096V72.0643H92.0832V53.9907Z" fill="white"/>
<path d="M55.9488 78.8355C55.9488 80.1772 55.5509 81.4888 54.8054 82.6044C54.06 83.7201 53.0005 84.5896 51.7609 85.1031C50.5213 85.6165 49.1572 85.7509 47.8413 85.4891C46.5253 85.2273 45.3165 84.5812 44.3677 83.6325C43.419 82.6837 42.7729 81.4749 42.5111 80.1589C42.2493 78.843 42.3837 77.479 42.8972 76.2393C43.4106 74.9997 44.2801 73.9402 45.3958 73.1948C46.5114 72.4493 47.823 72.0515 49.1648 72.0515H55.9488V53.9907H49.1648C44.2509 53.9907 39.4474 55.4478 35.3617 58.1778C31.276 60.9077 28.0916 64.788 26.2112 69.3278C24.3307 73.8676 23.8387 78.863 24.7973 83.6824C25.756 88.5019 28.1222 92.9288 31.5968 96.4034C35.0714 99.878 39.4984 102.244 44.3178 103.203C49.1372 104.162 54.1327 103.669 58.6725 101.789C63.2122 99.9086 67.0925 96.7242 69.8224 92.6385C72.5524 88.5528 74.0095 83.7493 74.0095 78.8355V72.0515H55.9488V78.8355Z" fill="white"/>
<path d="M80.7935 44.9535H101.12V26.8799H80.7935C74.2064 26.8867 67.8909 29.5065 63.2331 34.1643C58.5753 38.8221 55.9555 45.1376 55.9487 51.7247V53.9903H74.0095V51.7247C74.0129 49.9277 74.7292 48.2055 76.001 46.936C77.2729 45.6665 78.9965 44.9535 80.7935 44.9535Z" fill="white"/>
<path d="M55.9487 72.0515H74.0095V53.9907H55.9487V72.0515Z" fill="black"/>
</svg>
