<svg width="935" height="368" viewBox="0 0 935 368" fill="none" xmlns="http://www.w3.org/2000/svg">
<circle cx="70.5" cy="7.5" r="7.5" fill="black"/>
<circle cx="7.5" cy="260.5" r="7.5" fill="black"/>
<circle cx="288.5" cy="60.5" r="7.5" fill="black"/>
<circle cx="748.5" cy="60.5" r="7.5" fill="black"/>
<circle cx="646.5" cy="60.5" r="7.5" fill="black"/>
<circle cx="748.5" cy="359.5" r="7.5" fill="black"/>
<circle cx="645.5" cy="359.5" r="7.5" fill="black"/>
<circle cx="927.5" cy="159.5" r="7.5" fill="black"/>
<circle cx="288.5" cy="359.5" r="7.5" fill="black"/>
<circle cx="185.5" cy="359.5" r="7.5" fill="black"/>
<path d="M280.707 61.7071C281.098 61.3166 281.098 60.6834 280.707 60.2929L274.343 53.9289C273.953 53.5384 273.319 53.5384 272.929 53.9289C272.538 54.3195 272.538 54.9526 272.929 55.3431L278.586 61L272.929 66.6569C272.538 67.0474 272.538 67.6805 272.929 68.0711C273.319 68.4616 273.953 68.4616 274.343 68.0711L280.707 61.7071ZM77 9C128.806 9 155.474 22.1728 181.193 35.3894C207.012 48.6578 231.921 62 280 62V60C232.413 60 207.855 46.8422 182.107 33.6106C156.259 20.3272 129.26 7 77 7V9Z" fill="black"/>
<path d="M927.707 167.293C927.317 166.902 926.683 166.902 926.293 167.293L919.929 173.657C919.538 174.047 919.538 174.681 919.929 175.071C920.319 175.462 920.953 175.462 921.343 175.071L927 169.414L932.657 175.071C933.047 175.462 933.681 175.462 934.071 175.071C934.462 174.681 934.462 174.047 934.071 173.657L927.707 167.293ZM7.2929 252.707C7.68341 253.098 8.31659 253.098 8.70709 252.707L15.071 246.343C15.4616 245.953 15.4616 245.319 15.071 244.929C14.6805 244.538 14.0474 244.538 13.6569 244.929L8 250.586L2.34314 244.929C1.95263 244.538 1.31945 244.538 0.928952 244.929C0.538388 245.319 0.538388 245.953 0.928952 246.343L7.2929 252.707ZM926 168C926 187.627 912.137 201.52 887.156 211.013C862.183 220.504 826.416 225.451 783.363 227.306C697.281 231.013 582.473 222.348 467.578 213.316C352.727 204.286 237.789 194.889 151.567 197.164C108.468 198.302 72.4454 202.356 47.1688 210.878C21.9274 219.387 7 232.514 7 252L9 252C9 233.861 22.7913 221.207 47.8077 212.773C72.7889 204.351 108.563 200.3 151.62 199.164C237.711 196.892 352.523 206.276 467.422 215.309C582.277 224.339 697.219 233.018 783.449 229.304C826.553 227.447 862.583 222.492 887.867 212.883C913.145 203.277 928 188.873 928 168H926Z" fill="black"/>
<path d="M654.293 59.2929C653.902 59.6834 653.902 60.3166 654.293 60.7071L660.657 67.0711C661.047 67.4616 661.681 67.4616 662.071 67.0711C662.462 66.6805 662.462 66.0474 662.071 65.6569L656.414 60L662.071 54.3431C662.462 53.9526 662.462 53.3195 662.071 52.9289C661.681 52.5384 661.047 52.5384 660.657 52.9289L654.293 59.2929ZM740.707 60.7071C741.098 60.3166 741.098 59.6834 740.707 59.2929L734.343 52.9289C733.953 52.5384 733.319 52.5384 732.929 52.9289C732.538 53.3194 732.538 53.9526 732.929 54.3431L738.586 60L732.929 65.6568C732.538 66.0474 732.538 66.6805 732.929 67.0711C733.319 67.4616 733.953 67.4616 734.343 67.0711L740.707 60.7071ZM655 61L740 61L740 59L655 59L655 61Z" fill="black"/>
<path d="M193.293 359.293C192.902 359.683 192.902 360.317 193.293 360.707L199.657 367.071C200.047 367.462 200.681 367.462 201.071 367.071C201.462 366.681 201.462 366.047 201.071 365.657L195.414 360L201.071 354.343C201.462 353.953 201.462 353.319 201.071 352.929C200.681 352.538 200.047 352.538 199.657 352.929L193.293 359.293ZM280.707 360.707C281.098 360.317 281.098 359.683 280.707 359.293L274.343 352.929C273.953 352.538 273.319 352.538 272.929 352.929C272.538 353.319 272.538 353.953 272.929 354.343L278.586 360L272.929 365.657C272.538 366.047 272.538 366.681 272.929 367.071C273.319 367.462 273.953 367.462 274.343 367.071L280.707 360.707ZM194 361L280 361L280 359L194 359L194 361Z" fill="black"/>
<path d="M653.293 359.293C652.902 359.683 652.902 360.317 653.293 360.707L659.657 367.071C660.047 367.462 660.681 367.462 661.071 367.071C661.462 366.681 661.462 366.047 661.071 365.657L655.414 360L661.071 354.343C661.462 353.953 661.462 353.319 661.071 352.929C660.681 352.538 660.047 352.538 659.657 352.929L653.293 359.293ZM740.707 360.707C741.098 360.317 741.098 359.683 740.707 359.293L734.343 352.929C733.953 352.538 733.319 352.538 732.929 352.929C732.538 353.319 732.538 353.953 732.929 354.343L738.586 360L732.929 365.657C732.538 366.047 732.538 366.681 732.929 367.071C733.319 367.462 733.953 367.462 734.343 367.071L740.707 360.707ZM654 361L740 361L740 359L654 359L654 361Z" fill="black"/>
</svg>
