<svg width="118" height="16" viewBox="0 0 118 16" fill="none" xmlns="http://www.w3.org/2000/svg">
<circle cx="110.5" cy="7.5" r="7.5" fill="black"/>
<circle cx="7.5" cy="7.5" r="7.5" fill="black"/>
<path d="M15.2929 7.29289C14.9024 7.68342 14.9024 8.31658 15.2929 8.70711L21.6569 15.0711C22.0474 15.4616 22.6805 15.4616 23.0711 15.0711C23.4616 14.6805 23.4616 14.0474 23.0711 13.6569L17.4142 8L23.0711 2.34315C23.4616 1.95262 23.4616 1.31946 23.0711 0.928932C22.6805 0.538407 22.0474 0.538407 21.6569 0.928932L15.2929 7.29289ZM102.707 8.7071C103.098 8.31657 103.098 7.68341 102.707 7.29289L96.3431 0.928925C95.9526 0.538401 95.3195 0.538401 94.9289 0.928925C94.5384 1.31945 94.5384 1.95261 94.9289 2.34314L100.586 7.99999L94.9289 13.6568C94.5384 14.0474 94.5384 14.6805 94.9289 15.0711C95.3195 15.4616 95.9526 15.4616 96.3431 15.0711L102.707 8.7071ZM16 9L102 8.99999L102 6.99999L16 7L16 9Z" fill="black"/>
</svg>
