<svg width="62" height="146" viewBox="0 0 62 146" fill="none" xmlns="http://www.w3.org/2000/svg">
<g clip-path="url(#clip0_1_1978)">
<path d="M20.658 134.981C20.6322 132.944 20.0045 130.96 18.854 129.279C17.7035 127.597 16.0814 126.294 14.1919 125.532C12.3024 124.77 10.2299 124.584 8.23494 124.998C6.24 125.411 4.41181 126.405 2.98033 127.854C1.54884 129.304 0.578006 131.144 0.189943 133.144C-0.198121 135.144 0.0139245 137.215 0.799396 139.094C1.58487 140.974 2.90868 142.58 4.60432 143.709C6.29997 144.838 8.2917 145.441 10.329 145.441C11.6965 145.441 13.0504 145.17 14.3121 144.642C15.5739 144.115 16.7184 143.343 17.6793 142.37C18.6402 141.396 19.3982 140.242 19.9096 138.974C20.4209 137.706 20.6753 136.349 20.658 134.981Z" fill="white"/>
<path d="M41.3421 93.6653C41.3077 96.4166 40.1905 99.0436 38.2326 100.977C36.2748 102.91 33.6339 103.994 30.8823 103.994C28.1307 103.994 25.4899 102.91 23.532 100.977C21.5742 99.0436 20.457 96.4166 20.4226 93.6653C20.4226 91.6224 19.8168 89.6254 18.6819 87.9268C17.5469 86.2282 15.9337 84.9043 14.0464 84.1226C12.159 83.3408 10.0822 83.1362 8.07854 83.5348C6.07491 83.9333 4.23447 84.917 2.78993 86.3616C1.3454 87.8061 0.361665 89.6465 -0.0368806 91.6502C-0.435426 93.6538 -0.230879 95.7306 0.550897 97.618C1.33267 99.5054 2.65657 101.119 4.35516 102.254C6.05375 103.388 8.05074 103.994 10.0936 103.994C12.8225 104.028 15.4301 105.127 17.3598 107.057C19.2896 108.987 20.3887 111.594 20.4226 114.323C20.4226 117.097 21.5246 119.758 23.4862 121.719C25.4478 123.681 28.1082 124.783 30.8823 124.783C33.6339 124.783 36.2748 125.867 38.2326 127.8C40.1905 129.734 41.3077 132.361 41.3421 135.112C41.3161 137.186 41.9075 139.221 43.0409 140.958C44.1744 142.695 45.7988 144.056 47.7076 144.868C49.6164 145.68 51.7235 145.906 53.761 145.517C55.7986 145.128 57.6745 144.143 59.1504 142.685C60.6264 141.228 61.6356 139.364 62.0499 137.332C62.4642 135.299 62.2649 133.19 61.4772 131.271C60.6895 129.352 59.349 127.71 57.6262 126.555C55.9034 125.4 53.876 124.783 51.8018 124.783C49.0624 124.783 46.4351 123.695 44.4981 121.758C42.561 119.821 41.4728 117.193 41.4728 114.454C41.4728 111.715 42.561 109.087 44.4981 107.15C46.4351 105.213 49.0624 104.125 51.8018 104.125C53.876 104.125 55.9034 103.508 57.6262 102.353C59.349 101.198 60.6895 99.5561 61.4772 97.6372C62.2649 95.7183 62.4642 93.6086 62.0499 91.5761C61.6356 89.5436 60.6263 87.6802 59.1504 86.2228C57.6745 84.7653 55.7986 83.7796 53.761 83.3909C51.7235 83.0021 49.6164 83.228 47.7076 84.0398C45.7988 84.8516 44.1744 86.2125 43.0409 87.9497C41.9074 89.6869 41.3161 91.7219 41.3421 93.796L41.3421 93.6653Z" fill="white"/>
<path d="M41.3421 52.3232C41.3421 54.392 41.9555 56.4142 43.1048 58.1343C44.2542 59.8544 45.8878 61.1951 47.799 61.9867C49.7103 62.7784 51.8134 62.9856 53.8424 62.582C55.8714 62.1784 57.7351 61.1822 59.1979 59.7194C60.6607 58.2566 61.6569 56.3928 62.0605 54.3638C62.4641 52.3348 62.257 50.2317 61.4653 48.3205C60.6736 46.4092 59.333 44.7756 57.6129 43.6263C55.8928 42.477 53.8705 41.8635 51.8018 41.8635C49.0277 41.8635 46.3672 42.9655 44.4056 44.9271C42.4441 46.8887 41.3421 49.5491 41.3421 52.3232Z" fill="white"/>
<path d="M20.658 11.0072C20.658 8.96433 20.0522 6.96733 18.9172 5.26874C17.7822 3.57015 16.1691 2.24626 14.2817 1.46449C12.3943 0.682712 10.3175 0.478166 8.31389 0.876711C6.31027 1.27526 4.46982 2.25898 3.02529 3.70351C1.58075 5.14805 0.597019 6.98848 0.198473 8.99211C-0.200073 10.9957 0.00447413 13.0726 0.78625 14.9599C1.56803 16.8473 2.89192 18.4605 4.59051 19.5954C6.2891 20.7304 8.2861 21.3362 10.329 21.3362C13.0684 21.3362 15.6956 20.248 17.6327 18.3109C19.5697 16.3739 20.658 13.7466 20.658 11.0072Z" fill="white"/>
<path d="M41.3421 11.0073C41.3077 13.7587 40.1905 16.3857 38.2326 18.3191C36.2748 20.2524 33.6339 21.3365 30.8823 21.3363C28.1082 21.3363 25.4478 22.4383 23.4862 24.3998C21.5246 26.3614 20.4226 29.0219 20.4226 31.796C20.3887 34.5249 19.2896 37.1324 17.3598 39.0622C15.4301 40.9919 12.8225 42.091 10.0936 42.125C7.61881 42.4993 5.3603 43.7488 3.72816 45.6464C2.09601 47.5441 1.19845 49.964 1.19845 52.467C1.19845 54.97 2.09601 57.39 3.72816 59.2876C5.3603 61.1853 7.61881 62.4347 10.0936 62.8091C11.4621 62.8054 12.8176 63.0745 14.081 63.6004C15.3444 64.1264 16.4903 64.8989 17.4519 65.8726C18.4134 66.8464 19.1714 68.0019 19.6814 69.2718C20.1915 70.5417 20.4435 71.9004 20.4226 73.2688C20.4226 75.3375 21.0361 77.3598 22.1854 79.0799C23.3347 80.8 24.9683 82.1407 26.8796 82.9323C28.7908 83.724 30.8939 83.9311 32.9229 83.5275C34.9519 83.1239 36.8157 82.1277 38.2785 80.6649C39.7413 79.2021 40.7375 77.3384 41.1411 75.3094C41.5447 73.2804 41.3375 71.1773 40.5459 69.266C39.7542 67.3548 38.4135 65.7212 36.6934 64.5718C34.9733 63.4225 32.9511 62.8091 30.8823 62.8091C29.3934 63.0343 27.8734 62.9354 26.4263 62.5191C24.9791 62.1028 23.6389 61.379 22.4972 60.397C21.3555 59.4151 20.4393 58.1982 19.8113 56.8296C19.1832 55.461 18.8581 53.9729 18.8581 52.467C18.8581 50.9612 19.1832 49.473 19.8113 48.1044C20.4393 46.7358 21.3555 45.5189 22.4972 44.537C23.6389 43.555 24.9791 42.8312 26.4263 42.4149C27.8734 41.9986 29.3934 41.8997 30.8823 42.1249C33.6339 42.1252 36.2748 41.0411 38.2326 39.1077C40.1905 37.1743 41.3077 34.5474 41.3421 31.796C41.3421 29.0219 42.4441 26.3614 44.4056 24.3998C46.3672 22.4383 49.0277 21.3363 51.8018 21.3363C53.8389 21.3105 55.8229 20.6828 57.5042 19.5323C59.1855 18.3818 60.489 16.7598 61.2508 14.8703C62.0125 12.9808 62.1985 10.9082 61.7853 8.91326C61.3721 6.91832 60.3782 5.09011 58.9286 3.65862C57.479 2.22714 55.6385 1.25631 53.6385 0.868246C51.6385 0.480184 49.5685 0.69222 47.6887 1.47769C45.8089 2.26317 44.2034 3.58698 43.0741 5.28262C41.9448 6.97826 41.3422 8.97001 41.3421 11.0073Z" fill="white"/>
</g>
<defs>
<clipPath id="clip0_1_1978">
<rect width="144.632" height="62" fill="white" transform="translate(0 145.31) rotate(-90)"/>
</clipPath>
</defs>
</svg>
