<svg width="144" height="138" viewBox="0 0 144 138" fill="none" xmlns="http://www.w3.org/2000/svg">
<path d="M0 22.2472V0.381381H19.1641C20.3901 0.381381 21.4978 0.614447 22.4872 1.08058C23.4981 1.52552 24.2939 2.15056 24.8747 2.9557C25.4769 3.76084 25.778 4.6931 25.778 5.75249C25.778 6.81188 25.5952 7.68058 25.2296 8.35859C24.8639 9.0366 24.3692 9.57689 23.7455 9.97945C23.1432 10.3608 22.4765 10.6469 21.7452 10.8376V10.9647C22.584 11.1342 23.3476 11.4308 24.0358 11.8546C24.7241 12.2571 25.2726 12.8292 25.6812 13.5708C26.0899 14.3124 26.2942 15.2658 26.2942 16.4311C26.2942 17.5965 25.9824 18.6135 25.3586 19.4822C24.7564 20.3509 23.9283 21.0289 22.8744 21.5162C21.8205 22.0035 20.6482 22.2472 19.3577 22.2472H0ZM7.96893 17.1621H16.1637C16.7444 17.1621 17.2176 16.9926 17.5833 16.6536C17.9489 16.3146 18.1317 15.8061 18.1317 15.1281C18.1317 14.8103 18.0457 14.5242 17.8736 14.27C17.7231 13.9945 17.4972 13.7827 17.1961 13.6343C16.895 13.486 16.5508 13.4119 16.1637 13.4119H7.96893V17.1621ZM7.96893 8.89888H15.6475C16.0562 8.89888 16.4003 8.82472 16.6799 8.6764C16.981 8.5069 17.2069 8.27384 17.3574 7.97721C17.5295 7.68058 17.6155 7.30979 17.6155 6.86485C17.6155 6.39872 17.4219 6.00674 17.0348 5.68892C16.6476 5.34992 16.1852 5.18042 15.6475 5.18042H7.96893V8.89888Z" fill="white"/>
<path d="M29.9944 22.2472V0.381381H37.9633V16.2404H52.3525V22.2472H29.9944Z" fill="white"/>
<path d="M53.2279 22.2472L63.9715 0.381381H72.747L83.4905 22.2472H74.9408L73.6181 19.3551H62.7455L61.455 22.2472H53.2279ZM65.1652 13.9204H71.1983L69.6497 10.2337C69.5852 10.0642 69.4992 9.84173 69.3916 9.56629C69.2841 9.26966 69.1658 8.94125 69.0367 8.58106C68.9077 8.22087 68.7786 7.86067 68.6496 7.50048C68.542 7.14029 68.4345 6.81188 68.3269 6.51525H68.1011C67.9721 6.87544 67.8215 7.2886 67.6494 7.75474C67.4774 8.22087 67.3053 8.6764 67.1332 9.12135C66.9827 9.56629 66.8429 9.93708 66.7138 10.2337L65.1652 13.9204Z" fill="white"/>
<path d="M98.1721 22.6286C94.9673 22.6286 92.311 22.2048 90.2032 21.3573C88.0953 20.4886 86.5145 19.2173 85.4605 17.5435C84.4281 15.8697 83.9119 13.7933 83.9119 11.3143C83.9119 7.69117 85.1272 4.90498 87.5576 2.9557C89.9881 0.985233 93.5478 0 98.2366 0C100.818 0 103.087 0.402568 105.044 1.2077C107.001 1.99165 108.528 3.09342 109.625 4.513C110.744 5.9114 111.303 7.53226 111.303 9.3756H103.56C103.56 8.61284 103.334 7.93483 102.882 7.34157C102.431 6.74832 101.796 6.28218 100.979 5.94318C100.162 5.60417 99.2045 5.43467 98.1076 5.43467C96.731 5.43467 95.5911 5.67833 94.6877 6.16565C93.8059 6.65297 93.1499 7.30979 92.7197 8.13612C92.311 8.96244 92.1067 9.88411 92.1067 10.9011V11.6957C92.1067 12.6703 92.311 13.5814 92.7197 14.4289C93.1499 15.2552 93.7951 15.9226 94.6555 16.4311C95.5158 16.9396 96.6127 17.1939 97.9463 17.1939C99.1723 17.1939 100.215 17.035 101.076 16.7172C101.958 16.3994 102.624 15.9544 103.076 15.3823C103.549 14.8103 103.786 14.1429 103.786 13.3801H111.303C111.303 15.1599 110.776 16.749 109.722 18.1474C108.69 19.5457 107.195 20.6475 105.238 21.4527C103.28 22.2366 100.925 22.6286 98.1721 22.6286Z" fill="white"/>
<path d="M115.157 22.2472V0.381381H123.126V10.043L133.869 0.381381H143.742L133.934 9.31204L144 22.2472H134.289L128.062 14.0157L123.126 17.9567V22.2472H115.157Z" fill="white"/>
<path d="M144 21.9431H0V105.378L144 137.52V21.9431Z" fill="white"/>
<path d="M13.8588 52.8003L7.54279 30.8574H15.4222L17.9862 40.585C18.1321 41.0953 18.2572 41.595 18.3614 42.084C18.4656 42.573 18.5594 43.0195 18.6428 43.4235C18.7262 43.8063 18.7887 44.1146 18.8304 44.3485H19.0493C19.091 44.1146 19.1431 43.8382 19.2056 43.5192C19.2681 43.2003 19.3307 42.8707 19.3932 42.5305C19.4558 42.1903 19.5287 41.8501 19.6121 41.5099C19.6955 41.1697 19.7684 40.8614 19.831 40.585L22.2698 30.8574H31.6814L34.089 40.585C34.1932 40.9677 34.287 41.393 34.3704 41.8607C34.4746 42.3073 34.5684 42.7538 34.6518 43.2003C34.7352 43.6468 34.8082 44.0295 34.8707 44.3485H35.0896C35.1313 44.0933 35.1834 43.8063 35.2459 43.4873C35.3293 43.1684 35.4022 42.8388 35.4648 42.4986C35.5482 42.1584 35.6315 41.8289 35.7149 41.5099C35.7983 41.1697 35.8713 40.8614 35.9338 40.585L38.529 30.8574H45.6893L39.3732 52.8003H30.4932L27.3977 40.4574C27.3144 40.096 27.2206 39.7345 27.1163 39.373C27.0329 39.0116 26.96 38.682 26.8974 38.3843C26.8349 38.0867 26.7828 37.8528 26.7411 37.6827H26.5222C26.4597 37.9378 26.3867 38.2355 26.3034 38.5757C26.22 38.9159 26.1366 39.2561 26.0532 39.5963C25.9907 39.9152 25.9282 40.2023 25.8656 40.4574L22.7389 52.8003H13.8588Z" fill="black"/>
<path d="M43.9119 52.8003L54.324 30.8574H62.8288L73.241 52.8003H64.955L63.6731 49.898H53.1359L51.8852 52.8003H43.9119ZM55.4809 44.4441H61.328L59.8271 40.7445C59.7646 40.5744 59.6812 40.3511 59.577 40.0747C59.4728 39.777 59.3581 39.4475 59.2331 39.086C59.108 38.7245 58.9829 38.3631 58.8579 38.0016C58.7536 37.6401 58.6494 37.3106 58.5452 37.0129H58.3263C58.2012 37.3744 58.0553 37.789 57.8886 38.2568C57.7218 38.7245 57.555 39.1817 57.3883 39.6282C57.2424 40.0747 57.1069 40.4468 56.9818 40.7445L55.4809 44.4441Z" fill="black"/>
<path d="M75.8081 52.8003V30.8574H83.5312V46.7724H97.4766V52.8003H75.8081Z" fill="black"/>
<path d="M100.389 52.8003V30.8574H108.112V46.7724H122.057V52.8003H100.389Z" fill="black"/>
</svg>
