<svg width="126" height="126" viewBox="0 0 126 126" fill="none" xmlns="http://www.w3.org/2000/svg">
<g clip-path="url(#clip0_1_1121)">
<path d="M22.9521 64.9941H-6.10352e-05C0.31388 75.4141 3.21434 85.5918 8.43943 94.6087H27.645C24.6774 85.0119 23.0971 75.0393 22.9521 64.9941Z" fill="white"/>
<path d="M-6.10352e-05 61.0454H22.9521C23.0843 51.0022 24.6513 41.0296 27.6056 31.4309H8.43943C3.21434 40.4478 0.31388 50.6255 -6.10352e-05 61.0454Z" fill="white"/>
<path d="M61.0085 126.197V98.5571H33.1268C39.2789 114.352 49.4536 124.934 61.0085 126.197Z" fill="white"/>
<path d="M64.9521 -0.157959V27.4823H92.8731C86.6816 11.6879 76.5465 1.10559 64.9521 -0.157959Z" fill="white"/>
<path d="M61.0085 94.6087V64.9941H26.8958C27.0159 75.0537 28.6512 85.0376 31.7464 94.6087H61.0085Z" fill="white"/>
<path d="M64.9521 61.0454H99.1436C99.0235 50.9859 97.3882 41.002 94.293 31.4309H64.9916L64.9521 61.0454Z" fill="white"/>
<path d="M26.8958 61.0454H61.0085V31.4309H31.7464C28.6512 41.002 27.0159 50.9859 26.8958 61.0454Z" fill="white"/>
<path d="M61.0085 -0.157959C49.4536 0.947651 39.2789 11.6879 33.1268 27.4823H61.0085V-0.157959Z" fill="white"/>
<path d="M126 64.9941H103.087C102.992 75.0405 101.424 85.0183 98.4338 94.6087H117.679C122.847 85.5745 125.706 75.4014 126 64.9941Z" fill="white"/>
<path d="M29.0253 98.5571H10.845C19.237 110.879 31.7119 119.83 46.0619 123.828C38.2194 117.089 32.3344 108.36 29.0253 98.5571Z" fill="white"/>
<path d="M96.9747 98.5571C93.6655 108.36 87.7805 117.089 79.938 123.828C94.2881 119.83 106.763 110.879 115.155 98.5571H96.9747Z" fill="white"/>
<path d="M29.0253 27.4822C32.3344 17.6795 38.2194 8.95009 46.0619 2.21118C31.7119 6.20894 19.237 15.1607 10.845 27.4822H29.0253Z" fill="white"/>
<path d="M96.9747 27.4822H115.155C106.763 15.1607 94.2881 6.20894 79.938 2.21118C87.7805 8.95009 93.6655 17.6795 96.9747 27.4822Z" fill="white"/>
<path d="M99.1436 64.9941H64.9916V94.6087H94.293C97.3882 85.0376 99.0235 75.0537 99.1436 64.9941Z" fill="white"/>
<path d="M98.3549 31.4309C101.345 41.0213 102.913 50.9991 103.008 61.0454H126C125.682 50.6314 122.796 40.4579 117.6 31.4309H98.3549Z" fill="white"/>
<path d="M92.8731 98.5571H64.9521V126.197C76.5465 124.934 86.6816 114.352 92.8731 98.5571Z" fill="white"/>
</g>
<defs>
<clipPath id="clip0_1_1121">
<rect width="126" height="126" fill="white"/>
</clipPath>
</defs>
</svg>
